# xmcd
#
# Track frame offsets: 
#        150
#        19548
#        35926
#        57103
#        79257
#        95093
#        118606
#        155416
#        175599
#
# Disc length: 2571 seconds
#
# Revision: 4
# Processed by: cddbd v1.5.2PL0 Copyright (c) Steve Scherf et al.
# Submitted via: ExactAudioCopyFreeDBPlugin 1.0
#
DISCID=6c0a0909
DTITLE=Harry Muskee - 'Sky Songs' On The Spot
DYEAR=1994
DGENRE=Blues
TTITLE0=Bluesman
TTITLE1=Armadillo On Elmstreet
TTITLE2=At The End Of The Bar
TTITLE3='Sky Songs' On The Spot
TTITLE4=Travellin' With The Blues
TTITLE5=No News
TTITLE6=Lost In Myself
TTITLE7=It's Your Thing
TTITLE8=One More
EXTD=YEAR: 1994
EXTT0=
EXTT1=
EXTT2=
EXTT3=
EXTT4=
EXTT5=
EXTT6=
EXTT7=
EXTT8=
PLAYORDER=
